P3
6 120 255
255 0 0 255 0 0 255 255 255 255 255 255 0 0 255 0 0 255 
255 4 4 255 4 4 250 255 250 250 255 250 4 4 255 4 4 255 
255 8 8 255 8 8 246 255 246 246 255 246 8 8 255 8 8 255 
255 12 12 255 12 12 242 255 242 242 255 242 12 12 255 12 12 255 
255 17 17 255 17 17 237 255 237 237 255 237 17 17 255 17 17 255 
255 21 21 255 21 21 233 255 233 233 255 233 21 21 255 21 21 255 
255 25 25 255 25 25 229 255 229 229 255 229 25 25 255 25 25 255 
255 30 30 255 30 30 224 255 224 224 255 224 30 30 255 30 30 255 
255 34 34 255 34 34 220 255 220 220 255 220 34 34 255 34 34 255 
255 38 38 255 38 38 216 255 216 216 255 216 38 38 255 38 38 255 
255 43 43 255 43 43 211 255 211 211 255 211 43 43 255 43 43 255 
255 47 47 255 47 47 207 255 207 207 255 207 47 47 255 47 47 255 
255 51 51 255 51 51 203 255 203 203 255 203 51 51 255 51 51 255 
255 56 56 255 56 56 198 255 198 198 255 198 56 56 255 56 56 255 
255 60 60 255 60 60 194 255 194 194 255 194 60 60 255 60 60 255 
255 64 64 255 64 64 190 255 190 190 255 190 64 64 255 64 64 255 
255 69 69 255 69 69 185 255 185 185 255 185 69 69 255 69 69 255 
255 73 73 255 73 73 181 255 181 181 255 181 73 73 255 73 73 255 
255 77 77 255 77 77 177 255 177 177 255 177 77 77 255 77 77 255 
255 82 82 255 82 82 172 255 172 172 255 172 82 82 255 82 82 255 
255 86 86 255 86 86 168 255 168 168 255 168 86 86 255 86 86 255 
255 90 90 255 90 90 164 255 164 164 255 164 90 90 255 90 90 255 
255 95 95 255 95 95 159 255 159 159 255 159 95 95 255 95 95 255 
255 99 99 255 99 99 155 255 155 155 255 155 99 99 255 99 99 255 
255 103 103 255 103 103 151 255 151 151 255 151 103 103 255 103 103 255 
255 108 108 255 108 108 146 255 146 146 255 146 108 108 255 108 108 255 
255 112 112 255 112 112 142 255 142 142 255 142 112 112 255 112 112 255 
255 116 116 255 116 116 138 255 138 138 255 138 116 116 255 116 116 255 
255 121 121 255 121 121 133 255 133 133 255 133 121 121 255 121 121 255 
255 125 125 255 125 125 129 255 129 129 255 129 125 125 255 125 125 255 
255 129 129 255 129 129 125 255 125 125 255 125 129 129 255 129 129 255 
255 133 133 255 133 133 121 255 121 121 255 121 133 133 255 133 133 255 
255 138 138 255 138 138 116 255 116 116 255 116 138 138 255 138 138 255 
255 142 142 255 142 142 112 255 112 112 255 112 142 142 255 142 142 255 
255 146 146 255 146 146 108 255 108 108 255 108 146 146 255 146 146 255 
255 151 151 255 151 151 103 255 103 103 255 103 151 151 255 151 151 255 
255 155 155 255 155 155 99 255 99 99 255 99 155 155 255 155 155 255 
255 159 159 255 159 159 95 255 95 95 255 95 159 159 255 159 159 255 
255 164 164 255 164 164 90 255 90 90 255 90 164 164 255 164 164 255 
255 168 168 255 168 168 86 255 86 86 255 86 168 168 255 168 168 255 
255 172 172 255 172 172 82 255 82 82 255 82 172 172 255 172 172 255 
255 177 177 255 177 177 77 255 77 77 255 77 177 177 255 177 177 255 
255 181 181 255 181 181 73 255 73 73 255 73 181 181 255 181 181 255 
255 185 185 255 185 185 69 255 69 69 255 69 185 185 255 185 185 255 
255 190 190 255 190 190 64 255 64 64 255 64 190 190 255 190 190 255 
255 194 194 255 194 194 60 255 60 60 255 60 194 194 255 194 194 255 
255 198 198 255 198 198 56 255 56 56 255 56 198 198 255 198 198 255 
255 203 203 255 203 203 51 255 51 51 255 51 203 203 255 203 203 255 
255 207 207 255 207 207 47 255 47 47 255 47 207 207 255 207 207 255 
255 211 211 255 211 211 43 255 43 43 255 43 211 211 255 211 211 255 
255 216 216 255 216 216 38 255 38 38 255 38 216 216 255 216 216 255 
255 220 220 255 220 220 34 255 34 34 255 34 220 220 255 220 220 255 
255 224 224 255 224 224 30 255 30 30 255 30 224 224 255 224 224 255 
255 229 229 255 229 229 25 255 25 25 255 25 229 229 255 229 229 255 
255 233 233 255 233 233 21 255 21 21 255 21 233 233 255 233 233 255 
255 237 237 255 237 237 17 255 17 17 255 17 237 237 255 237 237 255 
255 242 242 255 242 242 12 255 12 12 255 12 242 242 255 242 242 255 
255 246 246 255 246 246 8 255 8 8 255 8 246 246 255 246 246 255 
255 250 250 255 250 250 4 255 4 4 255 4 250 250 255 250 250 255 
255 255 255 255 255 255 0 255 0 0 255 0 255 255 255 255 255 255 
0 0 0 0 0 0 0 0 0 255 255 255 255 255 255 255 255 255 
4 4 4 4 4 4 4 4 4 250 250 250 250 250 250 250 250 250 
8 8 8 8 8 8 8 8 8 246 246 246 246 246 246 246 246 246 
12 12 12 12 12 12 12 12 12 242 242 242 242 242 242 242 242 242 
17 17 17 17 17 17 17 17 17 237 237 237 237 237 237 237 237 237 
21 21 21 21 21 21 21 21 21 233 233 233 233 233 233 233 233 233 
25 25 25 25 25 25 25 25 25 229 229 229 229 229 229 229 229 229 
30 30 30 30 30 30 30 30 30 224 224 224 224 224 224 224 224 224 
34 34 34 34 34 34 34 34 34 220 220 220 220 220 220 220 220 220 
38 38 38 38 38 38 38 38 38 216 216 216 216 216 216 216 216 216 
43 43 43 43 43 43 43 43 43 211 211 211 211 211 211 211 211 211 
47 47 47 47 47 47 47 47 47 207 207 207 207 207 207 207 207 207 
51 51 51 51 51 51 51 51 51 203 203 203 203 203 203 203 203 203 
56 56 56 56 56 56 56 56 56 198 198 198 198 198 198 198 198 198 
60 60 60 60 60 60 60 60 60 194 194 194 194 194 194 194 194 194 
64 64 64 64 64 64 64 64 64 190 190 190 190 190 190 190 190 190 
69 69 69 69 69 69 69 69 69 185 185 185 185 185 185 185 185 185 
73 73 73 73 73 73 73 73 73 181 181 181 181 181 181 181 181 181 
77 77 77 77 77 77 77 77 77 177 177 177 177 177 177 177 177 177 
82 82 82 82 82 82 82 82 82 172 172 172 172 172 172 172 172 172 
86 86 86 86 86 86 86 86 86 168 168 168 168 168 168 168 168 168 
90 90 90 90 90 90 90 90 90 164 164 164 164 164 164 164 164 164 
95 95 95 95 95 95 95 95 95 159 159 159 159 159 159 159 159 159 
99 99 99 99 99 99 99 99 99 155 155 155 155 155 155 155 155 155 
103 103 103 103 103 103 103 103 103 151 151 151 151 151 151 151 151 151 
108 108 108 108 108 108 108 108 108 146 146 146 146 146 146 146 146 146 
112 112 112 112 112 112 112 112 112 142 142 142 142 142 142 142 142 142 
116 116 116 116 116 116 116 116 116 138 138 138 138 138 138 138 138 138 
121 121 121 121 121 121 121 121 121 133 133 133 133 133 133 133 133 133 
125 125 125 125 125 125 125 125 125 129 129 129 129 129 129 129 129 129 
129 129 129 129 129 129 129 129 129 125 125 125 125 125 125 125 125 125 
133 133 133 133 133 133 133 133 133 121 121 121 121 121 121 121 121 121 
138 138 138 138 138 138 138 138 138 116 116 116 116 116 116 116 116 116 
142 142 142 142 142 142 142 142 142 112 112 112 112 112 112 112 112 112 
146 146 146 146 146 146 146 146 146 108 108 108 108 108 108 108 108 108 
151 151 151 151 151 151 151 151 151 103 103 103 103 103 103 103 103 103 
155 155 155 155 155 155 155 155 155 99 99 99 99 99 99 99 99 99 
159 159 159 159 159 159 159 159 159 95 95 95 95 95 95 95 95 95 
164 164 164 164 164 164 164 164 164 90 90 90 90 90 90 90 90 90 
168 168 168 168 168 168 168 168 168 86 86 86 86 86 86 86 86 86 
172 172 172 172 172 172 172 172 172 82 82 82 82 82 82 82 82 82 
177 177 177 177 177 177 177 177 177 77 77 77 77 77 77 77 77 77 
181 181 181 181 181 181 181 181 181 73 73 73 73 73 73 73 73 73 
185 185 185 185 185 185 185 185 185 69 69 69 69 69 69 69 69 69 
190 190 190 190 190 190 190 190 190 64 64 64 64 64 64 64 64 64 
194 194 194 194 194 194 194 194 194 60 60 60 60 60 60 60 60 60 
198 198 198 198 198 198 198 198 198 56 56 56 56 56 56 56 56 56 
203 203 203 203 203 203 203 203 203 51 51 51 51 51 51 51 51 51 
207 207 207 207 207 207 207 207 207 47 47 47 47 47 47 47 47 47 
211 211 211 211 211 211 211 211 211 43 43 43 43 43 43 43 43 43 
216 216 216 216 216 216 216 216 216 38 38 38 38 38 38 38 38 38 
220 220 220 220 220 220 220 220 220 34 34 34 34 34 34 34 34 34 
224 224 224 224 224 224 224 224 224 30 30 30 30 30 30 30 30 30 
229 229 229 229 229 229 229 229 229 25 25 25 25 25 25 25 25 25 
233 233 233 233 233 233 233 233 233 21 21 21 21 21 21 21 21 21 
237 237 237 237 237 237 237 237 237 17 17 17 17 17 17 17 17 17 
242 242 242 242 242 242 242 242 242 12 12 12 12 12 12 12 12 12 
246 246 246 246 246 246 246 246 246 8 8 8 8 8 8 8 8 8 
250 250 250 250 250 250 250 250 250 4 4 4 4 4 4 4 4 4 
255 255 255 255 255 255 255 255 255 0 0 0 0 0 0 0 0 0 
